<svg xmlns="http://www.w3.org/2000/svg" viewBox="0 0 362.95 407.63"><defs><style>.cls-1{fill:#e7d2c0;}.cls-2{fill:#d3a77c;}.cls-3{fill:#95513e;}.cls-4{fill:#1d1d1b;}.cls-5{fill:#fff;}</style></defs><title>Fichier 8e</title><g id="Calque_2" data-name="Calque 2"><g id="Calque_3" data-name="Calque 3"><circle class="cls-1" cx="92.17" cy="92.17" r="92.17"/><circle class="cls-2" cx="224.98" cy="269.65" r="137.98"/><path class="cls-3" d="M164.65,297.78c0-1.47.2-4.17,1.87-5.11a2.63,2.63,0,0,1,1.78-.26c1.64.4,2.21,2.67,2.29,3a5,5,0,0,1,.15,1.17c0,2.22,1,6.74,2.27,16.22,1,7.24,1.49,10.86,1.64,14,.23,5.08.37,8.2-.44,12.43a32,32,0,0,1-5.42,13.33,29.08,29.08,0,0,1-7.2,7.05c-4.41,3-8.46,3.79-12.28,4.57a45.85,45.85,0,0,1-15.14.56,35.11,35.11,0,0,1-13.55-4.13c-2.62-1.51-11.55-6.63-13.94-17.35a25.31,25.31,0,0,1,2.85-17.84,21.18,21.18,0,0,1,10.53-9.52c1.62-.63,7.64-3,14,0,6.77,3.15,8.75,10,9.21,11.58a19.83,19.83,0,0,1,.3,9.54,17.47,17.47,0,0,1-3.51,8c-.71.88-3.14,3.88-6.69,4.93-2.9.86-4.34,1.29-5.29,1.21a2.17,2.17,0,0,0-1.53.29,2.29,2.29,0,0,0-.77,2.14c.12.7.57,1.25,1.88,2.2a21,21,0,0,0,4,2.33,23.09,23.09,0,0,0,6.33,1.68,23.73,23.73,0,0,0,9.68-1,29.88,29.88,0,0,0,10.77-5.84,29.48,29.48,0,0,0,4.95-5.29,29.14,29.14,0,0,0,4.46-10.38c.85-3.86.7-6.82.48-10.84a84.24,84.24,0,0,0-1.57-11.5C165.83,310.27,164.47,304,164.65,297.78Z"/><path class="cls-3" d="M167.53,272.65c.14,2.33.22,4.66-3,4.94s-2.78-2.28-3.12-4.19c-2.61-14.37-4.1-28.88-5.85-43.36-.1-.85-.14-1.71-.19-2.57-.11-1.87.11-3.47,2.56-3.54,2-.06,3.1.54,3.47,2.78Q165.17,249.6,167.53,272.65Z"/><path class="cls-3" d="M147.83,125.45c0,1.13.23,5-1.37,5.63-1.23.5-3.21-.92-3.49-1.59-4.21-10-1-38.92-.2-43,3.78-19,6.86-25.16,9.34-29.29,3-4.93,10.17-16.93,17.82-15.92,1.4.19,5.51,1.16,11,13a85.4,85.4,0,0,1,7.8,37.21c-.29,10.4-2.73,38.85-22.46,61.17-5.81,6.57-13.7,13.28-22.6,20.83-10.95,9.31-14.63,11.36-21.61,18.87-5.68,6.12-11.34,12.32-15.65,22.15-2.16,4.92-5.72,13.05-5.32,23.88.67,17.93,11.69,29.72,13.2,31.28,15.67,16.27,37.06,14.51,42,14.11a38.53,38.53,0,0,0,13.51-3.36c2.71-1.3,12.46-6.14,17-17.66a33.09,33.09,0,0,0,.5-22.48c-1-2.89-4.33-12.33-14.3-17.72a28.6,28.6,0,0,0-20-2.84c-2.41.57-10.17,2.52-15.36,9.9-5.63,8-6.43,19.75-1.79,25.33a63.59,63.59,0,0,0,8,8.28c1.44,1.15,3.22,2.41,2.93,3.24-.35,1-3.6.74-4.12.69-8.24-.72-14.68-12.94-15.16-13.88-4.23-8.25-7.19-21.85-.71-34.84a38.55,38.55,0,0,1,17.51-17.1c2.36-1.18,17.76-8.56,34.36-1.06,15.72,7.12,20.59,22.21,21.89,26.24,4.88,15.15.15,28-1.34,31.84a50.24,50.24,0,0,1-15.23,20.83c-11.91,9.65-24.67,10.91-29.52,11.32-20.89,1.78-36.21-8.59-39.46-10.9-22.35-15.87-29.38-45.25-25.69-67.28,3.84-23,19.63-39.68,26.72-47.2,3.23-3.41,10.5-10.63,19.48-18.42,9.51-8.25,13.7-10.85,21.86-19,5.43-5.41,9.33-9.29,13.62-15.59a64.39,64.39,0,0,0,10.55-26.41c.87-6,.36-9.22-1.45-11.78a11.59,11.59,0,0,0-8.57-4.86c-9-.19-19.81,15-21.56,29.69C147.62,119.78,147.83,125.45,147.83,125.45Z"/><path class="cls-3" d="M153.37,172.48a2.17,2.17,0,0,1,1,.85,2.14,2.14,0,0,1,.27.81c.09.53.18,1.07.29,1.7.05.3.12.61.2.91a20,20,0,0,1,.46,2,84,84,0,0,1,.73,11.41,8.56,8.56,0,0,1,0,2.34,1.5,1.5,0,0,1-.67.93,3,3,0,0,1-2.26.51,3.27,3.27,0,0,1-2.37-.89,2.78,2.78,0,0,1-.61-1.28,10,10,0,0,1-.21-3.52c.07-.79-.29-2.71-1-6.53-.28-1.48-.39-2.36-.55-3.77a5.24,5.24,0,0,1,.35-3.33,4.81,4.81,0,0,1,3-2.17A2.17,2.17,0,0,1,153.37,172.48Z"/><path class="cls-4" d="M68.12,119.4v12.28h-2V119.56c0-4.75-2.53-7.25-6.8-7.25-4.95,0-8,3.19-8,8.18v11.19h-2v-21h1.93v4.55c1.41-2.94,4.35-4.71,8.33-4.71C64.7,110.5,68.12,113.52,68.12,119.4Z"/><path class="cls-4" d="M73.15,121.17a10.51,10.51,0,1,1,10.51,10.67A10.24,10.24,0,0,1,73.15,121.17Zm19,0c0-5.27-3.62-8.86-8.45-8.86s-8.46,3.59-8.46,8.86S78.83,130,83.66,130,92.11,126.45,92.11,121.17Z"/><path class="cls-4" d="M117.8,110.66v21h-1.93v-4.51c-1.37,2.94-4.23,4.67-7.93,4.67-5.36,0-8.78-3-8.78-8.9V110.66h2v12.12c0,4.75,2.54,7.25,6.93,7.25,4.75,0,7.69-3.18,7.69-8.17v-11.2Z"/><path class="cls-4" d="M122.23,129.14l.92-1.61a12.22,12.22,0,0,0,7.57,2.54c4.43,0,6.2-1.57,6.2-3.95,0-6.12-13.93-1.61-13.93-9.86,0-3.18,2.66-5.76,8-5.76a12.9,12.9,0,0,1,7.21,2.06l-.92,1.61a10.86,10.86,0,0,0-6.33-1.9c-4.1,0-5.91,1.7-5.91,4,0,6.32,13.93,1.85,13.93,9.86,0,3.43-2.94,5.76-8.3,5.76C127.18,131.84,123.88,130.67,122.23,129.14Z"/><path class="cls-5" d="M187.73,319.26c0-9.05,6.88-15.76,16.12-15.76a14.8,14.8,0,0,1,11.05,4.31l-1.42,1.46a13,13,0,0,0-9.54-3.68c-7.95,0-13.94,5.86-13.94,13.67s6,13.67,13.94,13.67a13,13,0,0,0,9.54-3.72l1.42,1.46A14.83,14.83,0,0,1,203.85,335C194.61,335,187.73,328.32,187.73,319.26Z"/><path class="cls-5" d="M240.78,311.63V334.8h-2.13v-5c-1.51,3.24-4.66,5.15-8.75,5.15-5.9,0-9.67-3.33-9.67-9.81V311.63h2.22V325c0,5.24,2.79,8,7.63,8,5.24,0,8.48-3.51,8.48-9V311.63Z"/><path class="cls-5" d="M249.75,301.86H252V334.8h-2.22Z"/><path class="cls-5" d="M272.07,333.33a7,7,0,0,1-4.75,1.65c-4.08,0-6.3-2.4-6.3-6.31V313.54h-4.26v-1.91H261v-5.06h2.22v5.06h7.37v1.91h-7.37v14.91c0,3,1.47,4.62,4.31,4.62a5.34,5.34,0,0,0,3.59-1.29Z"/><path class="cls-5" d="M298.09,311.63V334.8H296v-5c-1.51,3.24-4.66,5.15-8.75,5.15-5.9,0-9.68-3.33-9.68-9.81V311.63h2.22V325c0,5.24,2.8,8,7.64,8,5.24,0,8.48-3.51,8.48-9V311.63Z"/><path class="cls-5" d="M318,311.45v2.18c-.18,0-.36-.05-.53-.05-5.15,0-8.22,3.42-8.22,9.15V334.8h-2.22V311.63h2.14v5.06C310.61,313.31,313.67,311.45,318,311.45Z"/><path class="cls-5" d="M343.06,323.75H323.12c.23,5.5,4.27,9.23,9.81,9.23a9.38,9.38,0,0,0,7.42-3.24l1.28,1.46a11.07,11.07,0,0,1-8.74,3.78c-7,0-11.94-4.89-11.94-11.77s4.75-11.76,11.1-11.76,11.05,4.79,11.05,11.67C343.1,323.3,343.06,323.52,343.06,323.75ZM323.17,322h17.75a8.76,8.76,0,0,0-8.87-8.61C327.12,313.4,323.52,317,323.17,322Z"/><path d="M127.22,95.73c-1.35.16-2.69.39-4,.49-7,.51-8-.18-10.34-6.93-4.9-14.4-4.9-14.4-20-14.4-.68,0-1.37,0-2.06,0-5.3.16-11.89-1.53-15.54,1S70.86,85.17,69,90.13c-2.4,6.37-3.94,7.16-11.86,5.19C59.89,88.17,62.6,81.08,65.38,74c6.46-16.38,13.19-32.66,19.27-49.17,1.81-4.89,4.92-4.45,8.7-4.72s4.89,2,6,4.89Q112,57.74,124.86,90.41a37.42,37.42,0,0,0,2.36,4.29ZM91.85,36.14l-1.5,0c-3.94,10-7.89,20-12,30.51h25.52Z"/><path class="cls-5" d="M228,255.83q-.63-4.92-.86-11.27t0-13.34q.22-7,.89-14.27t1.84-14.08a103.47,103.47,0,0,1,3-12.67A54.62,54.62,0,0,1,237,180a7.45,7.45,0,0,1,1.76-2.26,2.85,2.85,0,0,1,1.75-.7,1.85,1.85,0,0,1,1.64,1.09,6.09,6.09,0,0,1,.47,3.35q-.78,9.12-1.76,18.21t-2,18.14q-1,9-1.88,18.17t-1.4,18.4q.39,9.06,2,12.76t4.13,3.7c1.61,0,3.39-.93,5.34-2.81a52.43,52.43,0,0,0,5.85-6.78q2.92-4,5.62-8.39t4.64-7.68a1.35,1.35,0,0,1,1.17-.78,1.63,1.63,0,0,1,1.33.74,1.27,1.27,0,0,1,.15,1.45q-2.27,4.05-5.18,9a91.85,91.85,0,0,1-6.21,9.17,45.16,45.16,0,0,1-6.74,7.14,11.8,11.8,0,0,1-6.9,3,8.53,8.53,0,0,1-5.7-2,15.19,15.19,0,0,1-3.78-4.92,29.15,29.15,0,0,1-2.22-6.23A52.31,52.31,0,0,1,228,255.83Z"/><path class="cls-5" d="M272.17,249.51a7.84,7.84,0,0,1-2.58,2.61,5.47,5.47,0,0,1-2.8.82,5.12,5.12,0,0,1-3.47-1.4,8.86,8.86,0,0,1-2.46-4,15.68,15.68,0,0,1-.63-5.5,26.13,26.13,0,0,1,1-5.92,29,29,0,0,1,2.22-5.5,17.43,17.43,0,0,1,3-4.21,10,10,0,0,1,3.2-2.23,8.53,8.53,0,0,1,3.2-.66,7.39,7.39,0,0,1,3.78,1,7.84,7.84,0,0,1,2.46,2.07,2.33,2.33,0,0,1,1.13-1.52,3.65,3.65,0,0,1,1.68-.43,2.94,2.94,0,0,1,1.52.39,1.06,1.06,0,0,1,.58,1.09c-.21,2.14-.48,4.38-.82,6.75s-.62,4.73-.85,7.1-.37,4.68-.39,6.94a34.09,34.09,0,0,0,.5,6.43q.63,3.51,2,3.51a1.58,1.58,0,0,0,1.21-.74,14.88,14.88,0,0,0,1.21-1.83c.57-1.14,1.21-2.48,1.91-4s1.39-3.12,2.07-4.76,1.32-3.23,1.95-4.79,1.17-3,1.64-4.21a1,1,0,0,1,1-.63,1.58,1.58,0,0,1,1.09.43,1.11,1.11,0,0,1,.24,1.21c-.32,1-.76,2.33-1.33,4s-1.22,3.47-2,5.34-1.48,3.72-2.26,5.54-1.54,3.4-2.26,4.75a9.32,9.32,0,0,1-2.69,3.36,5.26,5.26,0,0,1-3.08,1.09,5.39,5.39,0,0,1-3.44-1.33,10.31,10.31,0,0,1-2.8-4,18.87,18.87,0,0,1-.71-2.34,31.13,31.13,0,0,1-.62-3.32c-.16-1.17-.26-2.34-.31-3.51a9.51,9.51,0,0,1,.23-2.92c-.31.57-.83,1.42-1.56,2.53Zm-4.92-7.88a17.22,17.22,0,0,0-.15,4.57c.15,1.27.57,1.91,1.25,1.91s1.61-.81,2.65-2.42l3.82-6a16.37,16.37,0,0,0,1-1.87,5.92,5.92,0,0,0,.43-1.36c.08-.44.16-.94.24-1.48a18.4,18.4,0,0,1,.43-2.07c.1-.42.22-.86.35-1.33a5,5,0,0,0,.19-1.32,4.33,4.33,0,0,0-2.88-1.25,3.78,3.78,0,0,0-2.93,1.52,14,14,0,0,0-2.18,3.59,29.07,29.07,0,0,0-1.45,4.17C267.67,239.68,267.41,240.8,267.25,241.63Z"/></g></g></svg>